<svg width="29" height="29" viewBox="0 0 29 29" fill="none" xmlns="http://www.w3.org/2000/svg">
<g clip-path="url(#clip0_4684_3578)">
<g clip-path="url(#clip1_4684_3578)">
<path d="M14.943 28.0173C22.4084 28.0173 28.4603 21.9654 28.4603 14.5C28.4603 7.03466 22.4084 0.982788 14.943 0.982788C7.47766 0.982788 1.42578 7.03466 1.42578 14.5C1.42578 21.9654 7.47766 28.0173 14.943 28.0173Z" fill="white"/>
<path d="M21.6623 9.73891L19.6225 19.3588C19.4686 20.0376 19.0673 20.2067 18.497 19.8868L15.3889 17.5965L13.8892 19.0389C13.7233 19.2049 13.5844 19.3436 13.2646 19.3436L13.4879 16.1783L19.2483 10.9731C19.4988 10.7498 19.194 10.6261 18.859 10.8494L11.7378 15.3334L8.67194 14.3738C8.00507 14.1656 7.993 13.7069 8.81074 13.3871L20.8023 8.76728C21.3575 8.55907 21.8434 8.891 21.6623 9.73891Z" fill="#8848AB"/>
</g>
</g>
<defs>
<clipPath id="clip0_4684_3578">
<rect width="28" height="28" fill="#8848AB" transform="translate(0.78125 0.5)"/>
</clipPath>
<clipPath id="clip1_4684_3578">
<rect width="28" height="27.0345" fill="#8848AB" transform="translate(0.78125 0.982788)"/>
</clipPath>
</defs>
</svg>
