<svg width="29" height="29" viewBox="0 0 29 29" fill="none" xmlns="http://www.w3.org/2000/svg">
<g clip-path="url(#clip0_4684_3582)">
<g clip-path="url(#clip1_4684_3582)">
<g clip-path="url(#clip2_4684_3582)">
<path d="M14.7812 28.5C22.5132 28.5 28.7812 22.232 28.7812 14.5C28.7812 6.76801 22.5132 0.5 14.7812 0.5C7.04926 0.5 0.78125 6.76801 0.78125 14.5C0.78125 22.232 7.04926 28.5 14.7812 28.5Z" fill="white"/>
<path d="M23.8871 5.27812C21.4554 2.84062 18.2169 1.5 14.7754 1.5C7.67187 1.5 1.89152 7.28036 1.89152 14.3839C1.89152 16.6531 2.48348 18.8701 3.60937 20.8259L1.78125 27.5L8.61205 25.7067C10.4924 26.7339 12.6108 27.2737 14.7697 27.2737H14.7754C21.8732 27.2737 27.7812 21.4933 27.7812 14.3897C27.7812 10.9482 26.3188 7.71562 23.8871 5.27812ZM14.7754 25.1031C12.8486 25.1031 10.9625 24.5866 9.32009 23.6116L8.93125 23.3795L4.88036 24.4415L5.95982 20.4893L5.70446 20.083C4.6308 18.3768 4.06786 16.4094 4.06786 14.3839C4.06786 8.4817 8.87321 3.67634 14.7812 3.67634C17.6425 3.67634 20.3294 4.79062 22.3491 6.81607C24.3687 8.84152 25.6108 11.5286 25.6049 14.3897C25.6049 20.2978 20.6777 25.1031 14.7754 25.1031ZM20.6486 17.0826C20.3294 16.9201 18.7451 16.1424 18.4492 16.0379C18.1532 15.9277 17.9384 15.8754 17.7236 16.2004C17.509 16.5254 16.8937 17.2451 16.7022 17.4656C16.5165 17.6804 16.325 17.7094 16.0058 17.5469C14.1138 16.6009 12.8719 15.858 11.6242 13.7165C11.2934 13.1478 11.955 13.1884 12.5701 11.958C12.6746 11.7433 12.6223 11.5576 12.541 11.3951C12.4599 11.2326 11.8156 9.64821 11.5486 9.00402C11.2875 8.37723 11.0205 8.46429 10.8232 8.45268C10.6375 8.44107 10.4228 8.44107 10.208 8.44107C9.9933 8.44107 9.64509 8.52232 9.34911 8.84152C9.05312 9.16652 8.22321 9.9442 8.22321 11.5286C8.22321 13.1129 9.37813 14.6451 9.53482 14.8598C9.69732 15.0746 11.804 18.3246 15.0366 19.7232C17.0794 20.6054 17.8804 20.6808 18.9018 20.5299C19.5228 20.4371 20.8053 19.7522 21.0723 18.9978C21.3392 18.2433 21.3393 17.5991 21.2581 17.4656C21.1826 17.3205 20.9678 17.2393 20.6486 17.0826Z" fill="#8848AB"/>
</g>
</g>
</g>
<defs>
<clipPath id="clip0_4684_3582">
<rect width="28" height="28" fill="#8848AB" transform="translate(0.78125 0.5)"/>
</clipPath>
<clipPath id="clip1_4684_3582">
<rect width="28" height="28" fill="#8848AB" transform="translate(0.78125 0.5)"/>
</clipPath>
<clipPath id="clip2_4684_3582">
<rect width="28" height="28" fill="#8848AB" transform="translate(0.78125 0.5)"/>
</clipPath>
</defs>
</svg>
